<svg enable-background="new 0 0 1100 1100" viewBox="0 0 1100 1100" xmlns="http://www.w3.org/2000/svg"
     xmlns:xlink="http://www.w3.org/1999/xlink">
    <linearGradient id="a" gradientUnits="userSpaceOnUse" x1="550" x2="550" y1="0" y2="1100">
        <stop offset="0" stop-color="#0cebeb"/>
        <stop offset=".5" stop-color="#20e3b2"/>
        <stop offset="1" stop-color="#29ffc6"/>
    </linearGradient>
    <clipPath id="b">
        <path d="m549.85 640.19c-142.82 0-285.64.02-428.46-.08-4.93 0-10.09-.43-14.75-1.9-8.37-2.64-14.06-8.66-17.35-16.85-4.34-10.82-8.68-21.65-13.01-32.48-21.02-52.6-41.83-105.29-63.17-157.76-8.46-20.81-12.32-42.18-10.79-64.46 2.5-36.38 16.82-67.52 42.52-93.43 12.23-12.34 26.73-21.36 42.01-29.38 58.29-30.57 116.51-61.25 174.75-91.92 72.68-38.27 145.36-76.55 218.02-114.88 16.37-8.64 33.59-14.62 51.98-16.94 27.45-3.45 53.95.24 78.94 12.17 17.13 8.18 33.83 17.27 50.64 26.12 96.87 50.99 193.72 102.03 290.57 153.06 23.14 12.19 46.54 23.94 69.37 36.69 49.93 27.88 75.42 70.88 76.86 127.93.48 19.05-3.86 37.41-10.9 55.07-25.06 62.83-50.24 125.61-75.29 188.44-3.38 8.48-8.59 15.18-17.29 18.25-4.15 1.47-8.76 2.1-13.19 2.21-11.49.3-23 .1-34.49.1-132.33.04-264.65.04-396.97.04zm-28.9-235.73c-2.54-.66-4.63-1.08-6.63-1.75-31.3-10.49-54.11-30.7-68.85-60.15-1.19-2.38-2.26-4.84-3.62-7.13-7.32-12.28-22.61-17.17-35.72-11.49-15.61 6.76-22.02 23.8-14.67 39.67 22.66 48.97 59.81 81.37 111.65 96.42 34.8 10.1 69.62 8.8 103.77-3.05 40.26-13.97 71.38-39.59 93.12-76.27 4.22-7.11 8.05-14.7 10.5-22.56 4.15-13.32-2.64-27.4-14.79-33.2-12.71-6.07-27.41-2.66-35.83 8.55-2.07 2.76-3.49 6.04-5.06 9.15-14.91 29.58-38 49.72-69.46 60.2-1.82.61-3.72.96-5.85 1.5 0-47.06 0-93.47 0-139.59 4.39-1.3 8.6-1.99 12.31-3.74 12.04-5.68 18.16-18.85 15.39-32.16-2.62-12.55-13.53-22.24-26.57-22.48-20.32-.36-40.66-.4-60.98.01-14.35.29-26.14 11.92-27.27 25.8-1.22 14.95 8.14 27.87 22.53 31.06 1.93.43 3.88.74 6.04 1.15-.01 46.69-.01 93.07-.01 140.06z"/>
        <path d="m988.03 871.55c-.9 1.76-1.49 3.08-2.22 4.32-13.7 23.45-30.49 44.52-49.41 63.92-38.83 39.81-84.68 69.25-135.34 91.65-46.33 20.48-94.68 33.84-144.67 41.5-44.27 6.79-88.76 9.38-133.54 7.63-43.93-1.72-87.3-7.47-130.07-17.53-33.49-7.87-65.89-19.09-97.32-33.14-31.16-13.94-60.59-30.85-87.79-51.46-37.16-28.15-68.72-61.51-92.68-101.74-.9-1.52-1.71-3.09-2.86-5.16 292.19.01 583.59.01 875.9.01z"/>
        <path d="m1012.65 693.72c.1 1.68.27 3.14.27 4.59.01 28.17.01 56.33.01 84.5 0 10.08-3.4 18.55-11.58 24.85-5.24 4.03-11.22 5.83-17.7 5.89-14.49.13-28.99.09-43.48.09-28.82 0-57.65-.02-86.47-.02-26.15 0-52.31.02-78.46.02-28.82 0-57.65-.02-86.47-.02-26.49 0-52.98 0-79.46 0-28.49 0-56.98 0-85.47 0-26.49 0-52.98 0-79.46 0-28.49 0-56.98 0-85.47 0-26.49 0-52.98 0-79.46 0-28.66 0-57.31 0-85.97.01-25.49.01-50.98.21-76.47.01-17.15-.13-29.46-12.33-29.59-29.39-.21-29.16-.03-58.32.01-87.48 0-.97.2-1.94.33-3.15 1 .09 1.83.02 2.56.26 9.79 3.16 19.86 4.07 30.09 4.07 108.16-.03 216.33-.01 324.49-.01 176.83 0 353.66-.02 530.49.03 12.06 0 23.99-.5 35.55-4.37.29-.09.64.04 1.71.12z"/>
    </clipPath>
    <path d="m0 0h1100v1100h-1100z" fill="url(#a)" clip-path="url(#b)"/>
</svg>
