<svg xmlns="http://www.w3.org/2000/svg" viewBox="0 0 220 78"><title>catchIT</title><g id="logo"><path d="M57.773 57.828l-10.961-18.97L69.225 0H22.417L.001 38.825l22.416 38.823h46.81zm-34.367 14.68L4.95 40.541l36.912.03zm18.456-35.365l-36.914-.03 18.457-31.97zm2.968-1.715l-18.457-32h36.916M26.376 74.22L44.83 42.287l.002.001v-.001l9.588 16.589 8.866 15.344z" fill="#7dc5b0" class="fade-logo"></path><g transform="matrix(1.33333 0 0 -1.33333 -52.912 142.761)"><path d="M106.155 75.644c0-1.006.785-1.694 1.866-1.694 1.153 0 1.889.786 1.889 2.136h3.118c0-2.872-2.037-4.688-5.007-4.688-1.45 0-2.651.392-3.584 1.202-.908.81-1.375 1.841-1.375 3.142v4.025c0 1.277.467 2.332 1.399 3.142.933.835 2.136 1.252 3.584 1.252 2.946 0 4.884-1.79 4.884-4.614h-3.043c0 1.276-.737 2.062-1.89 2.062-1.08 0-1.841-.737-1.841-1.817zM118.23 80.259c0 .908.392 1.792 1.177 2.626.787.859 1.94 1.277 3.487 1.277 2.772 0 4.441-1.768 4.441-4.296v-8.223h-2.674l-.05.958c-.074-.074-.172-.197-.319-.32-.147-.122-.49-.318-1.006-.54-.516-.22-1.08-.32-1.694-.32-1.154 0-2.11.37-2.897 1.082-.785.736-1.178 1.669-1.178 2.773 0 1.105.418 1.988 1.277 2.65.86.664 1.963 1.056 3.264 1.155l2.357.196v.516c0 1.25-.786 1.84-1.743 1.84-.81 0-1.448-.564-1.57-1.374zm5.473-5.94c.467.368.713.736.713 1.129v1.546l-2.283-.221c-.908-.073-1.645-.638-1.645-1.448 0-.86.638-1.521 1.62-1.521.589 0 1.129.17 1.596.515M133.52 81.363h-2.11v2.553h2.11v3.215h2.921v-3.215h6.013v-2.553h-6.013v-5.547c0-1.179.662-1.866 1.816-1.866 1.105 0 1.841.786 1.841 1.841h2.896v-.22c0-2.382-1.816-4.173-4.786-4.173-2.945 0-4.688 1.57-4.688 4.197zM150.332 75.644c0-1.006.785-1.694 1.865-1.694 1.154 0 1.89.786 1.89 2.136h3.118c0-2.872-2.037-4.688-5.008-4.688-1.448 0-2.65.392-3.583 1.202-.908.81-1.375 1.841-1.375 3.142v4.025c0 1.277.467 2.332 1.4 3.142.932.835 2.135 1.252 3.583 1.252 2.946 0 4.884-1.79 4.884-4.614h-3.043c0 1.276-.737 2.062-1.89 2.062-1.08 0-1.84-.737-1.84-1.817zM168.912 71.643v8.002c0 1.153-.834 1.94-1.94 1.94-1.153 0-2.135-.86-2.135-1.916v-8.026h-2.994v17.182h2.97v-5.719l.368.294c.172.123.49.27.982.467a4.165 4.165 0 0 0 1.497.294c1.203 0 2.209-.417 3.019-1.276.835-.859 1.252-1.89 1.252-3.142v-8.1z" fill="#dedfe0"></path></g><path d="M182.61 27.993v-3.665h12.862v3.665h-4.418v15.579h4.418v3.665H182.61v-3.665h4.451V27.993zM201.918 28.157v-3.83h13.516v3.83h-4.779v19.08h-3.992v-19.08z" fill="#dedfe0"></path></g><defs><symbol id="icon-earth" viewBox="0 0 24 24"><path d="M21.6 8.2l-9-7c-0.4-0.3-0.9-0.3-1.2 0l-9 7c-0.3 0.2-0.4 0.5-0.4 0.8v11c0 1.7 1.3 3 3 3h14c1.7 0 3-1.3 3-3v-11c0-0.3-0.1-0.6-0.4-0.8zM14 21h-4v-8h4v8zM20 20c0 0.6-0.4 1-1 1h-3v-9c0-0.6-0.4-1-1-1h-6c-0.6 0-1 0.4-1 1v9h-3c-0.6 0-1-0.4-1-1v-10.5l8-6.2 8 6.2v10.5z"></path></symbol><symbol id="icon-github" viewBox="0 0 24 24"><title>github</title><path d="M22.5 8.5c0-1.5-0.5-2.8-1.4-4 0.3-1.3 0.2-2.7-0.3-3.9-0.1-0.3-0.3-0.5-0.6-0.6-0.4-0.1-1.7-0.3-4.4 1.4-2.2-0.5-4.5-0.5-6.6 0-2.7-1.7-4-1.5-4.4-1.4-0.3 0.1-0.5 0.3-0.6 0.6-0.6 1.3-0.7 2.6-0.3 3.9-0.9 1.2-1.4 2.6-1.4 4 0 5.4 3 7.1 5.8 7.7-0.2 0.7-0.3 1.3-0.3 1.9v0.1c-2.1 0.4-2.8-0.4-3.6-1.5-0.5-0.7-1.1-1.5-2.2-1.7-0.5-0.1-1.1 0.2-1.2 0.7s0.2 1.1 0.7 1.2c0.3 0.1 0.7 0.5 1.1 1 0.9 1.2 2.2 2.8 5.2 2.4v1.7c0 0.6 0.4 1 1 1s1-0.4 1-1v-2.9c0 0 0-0.1 0-0.1v-0.9c0-0.7 0.2-1.3 0.7-1.8 0.3-0.3 0.4-0.7 0.2-1-0.1-0.4-0.4-0.6-0.8-0.7-2.9-0.4-5.6-1.3-5.6-6 0-1.2 0.4-2.2 1.2-3.1 0.3-0.3 0.3-0.7 0.2-1-0.3-0.9-0.3-1.7-0.1-2.5 0.5 0.1 1.4 0.4 2.6 1.3 0.3 0.2 0.6 0.2 0.9 0.1 2.1-0.6 4.4-0.6 6.5 0 0.3 0.1 0.6 0 0.8-0.1 1.3-0.9 2.2-1.2 2.6-1.3 0.2 0.8 0.2 1.6-0.1 2.4-0.1 0.4-0.1 0.8 0.2 1 0.8 0.8 1.2 1.9 1.2 3.1 0 4.7-2.7 5.7-5.6 6-0.4 0-0.7 0.3-0.8 0.7s0 0.8 0.2 1c0.5 0.5 0.7 1.2 0.7 1.9v3.9c0 0.6 0.4 1 1 1s1-0.4 1-1v-3.8c0.1-0.7 0-1.3-0.3-1.9 2.4-0.5 5.8-2.1 5.8-7.8z"></path></symbol><symbol id="icon-twitter" viewBox="0 0 32 32"><title>twitter</title><path d="M31.939 6.092c-1.18 0.519-2.44 0.872-3.767 1.033 1.352-0.815 2.392-2.099 2.884-3.631-1.268 0.74-2.673 1.279-4.169 1.579-1.195-1.279-2.897-2.079-4.788-2.079-3.623 0-6.56 2.937-6.56 6.556 0 0.52 0.060 1.020 0.169 1.499-5.453-0.257-10.287-2.876-13.521-6.835-0.569 0.963-0.888 2.081-0.888 3.3 0 2.28 1.16 4.284 2.917 5.461-1.076-0.035-2.088-0.331-2.971-0.821v0.081c0 3.18 2.257 5.832 5.261 6.436-0.551 0.148-1.132 0.228-1.728 0.228-0.419 0-0.82-0.040-1.221-0.115 0.841 2.604 3.26 4.503 6.139 4.556-2.24 1.759-5.079 2.807-8.136 2.807-0.52 0-1.039-0.031-1.56-0.089 2.919 1.859 6.357 2.945 10.076 2.945 12.072 0 18.665-9.995 18.665-18.648 0-0.279 0-0.56-0.020-0.84 1.281-0.919 2.4-2.080 3.28-3.397l-0.063-0.027z"></path></symbol><symbol id="icon-xing" viewBox="0 0 32 32"><title>xing</title><path d="M24.251 0c-0.689 0-0.988 0.433-1.236 0.88 0 0-9.94 17.632-10.269 18.209 0.020 0.032 6.559 12.031 6.559 12.031 0.227 0.411 0.581 0.88 1.289 0.88h4.605c0.281 0 0.5-0.104 0.617-0.293 0.119-0.201 0.119-0.461-0.012-0.715l-6.505-11.888c-0.005-0.008-0.005-0.021 0-0.029l10.22-18.067c0.127-0.255 0.129-0.516 0.008-0.713-0.119-0.191-0.335-0.295-0.612-0.295h-4.664zM4.864 6.32c-0.281 0-0.513 0.099-0.631 0.288-0.12 0.199-0.104 0.452 0.027 0.708l3.12 5.4c0.005 0.013 0.005 0.021 0 0.028l-4.9 8.657c-0.132 0.251-0.124 0.508 0 0.705 0.113 0.189 0.319 0.312 0.6 0.312h4.615c0.691 0 1.021-0.464 1.26-0.889l4.979-8.812-3.171-5.54c-0.229-0.42-0.579-0.879-1.283-0.879h-4.616v0.021z"></path></symbol><symbol id="icon-linkedin" viewBox="0 0 32 32"><title>linkedin</title><path d="M12 12h5.535v2.837h0.079c0.77-1.381 2.655-2.837 5.464-2.837 5.842 0 6.922 3.637 6.922 8.367v9.633h-5.769v-8.54c0-2.037-0.042-4.657-3.001-4.657-3.005 0-3.463 2.218-3.463 4.509v8.688h-5.767v-18z"></path><path d="M2 12h6v18h-6v-18z"></path><path d="M8 7c0 1.657-1.343 3-3 3s-3-1.343-3-3c0-1.657 1.343-3 3-3s3 1.343 3 3z"></path></symbol></defs></svg>