<svg xmlns="http://www.w3.org/2000/svg" viewBox="0 0 18 13.5"><defs><style>.cls-1{fill:none;}.cls-2 {clip-path:url(#clip-path);}.cls-3{fill:#2b2e38;}.cls-4{fill: #3ea468;}.cls-5{fill:#6b6e78;}.cls-6{fill: #3c925d;}.cls-7{fill: #f6f6f6;}</style></defs><path class="cls-3" d="M4.02 13.91L0 6.96 4.02 0h8.03l4.01 6.96-4.01 6.95H4.02z" /><path class="cls-3" d="M6.36 13.91L2.34 6.96 6.36 0h8.03l4.01 6.96-4.01 6.95H6.36z" /><path class="cls-4" d="M5.19 13.91L1.17 6.96 5.19 0h8.03l4.01 6.96-4.01 6.95H5.19z" /><path class="cls-4" d="M13.22 0L5.19 13.91h8.03l4.01-6.95L13.22 0z" /><path class="cls-6" d="M11.48 3.81l-5.86 10.1h-.43l-2.04-3.52 4.27-7.38" /><path class="cls-6" d="M10.77 6.73l-4.18 7.18h-1.4l-.56-.96 3.59-6.57" /><path class="cls-7" d="M7.42 3.01h4.06v.79H7.42zM7.42 6.03h3.35v.69H7.42z" /><path class="cls-7" d="M7.42 3.01h.99v7.75h-.99z" /></svg>